<?xml version="1.0" encoding="utf-8"?>
<!-- Generator: Adobe Adobe Illustrator 24.2.0, SVG Export Plug-In . SVG Version: 6.00 Build 0)  -->
<svg version="1.1" xmlns="http://www.w3.org/2000/svg" xmlns:xlink="http://www.w3.org/1999/xlink" x="0px" y="0px" width="530px"
	 height="388px" viewBox="0 0 530 388" style="enable-background:new 0 0 530 388;" xml:space="preserve">
<style type="text/css">
	.st0{fill:#FFFFFF;stroke:#000000;stroke-miterlimit:10;}
	.st1{fill:#FFFFFF;stroke:#000000;stroke-width:5;stroke-miterlimit:10;}
</style>
<g id="Background">
	<path class="st0" d="M20,328.06L144.88,61.8L259.3,94.23c0,0,33.41-54.83,89.62-23.11c20.15,11.37,34.68,30.8,17.97,88.13
		c-0.32,1.11,2.02,4.8,3.63-2.9c3.99-19.17,10.57-63.81,14.84-71.94c12.38-23.59,29.39-34.65,50.22-32.64
		c15.38,1.49,36.98,15.53,34.05,51.61c0,0,2.6,17.94-31.29,51.83c-11.69,11.69-29.04,33.45-23.39,62.73
		c0.89,4.63,1.61,12.1,18.72,7.59c14.33-3.78,53.41-8.85,36.16,46.99c-5.98,19.36-32.11,41.07-55.21,46.45
		c-23.17,5.4-89.45,6.77-57.64-78.79c0.4-1.07-1.73-6.95-4.44-1.07c-8.87,19.23-8.05,61.9-35.88,70.62
		c-16.7,5.23-26.59,1.61-28.51,1.16c-2.6-0.6-7.1-3.77-13.64-1.41l-61.04,9.54l-50.12-135.7L97.63,332.6
		c0,0-12.99-20.31-15.32-23.14l-12.42-0.26L20,328.06z"/>
</g>
<g id="Heart">
	<path class="st0" d="M267.5,259.89c0,0,43.94-54.29,47.93-85.66c0.83-6.54,3.2-28.8-17.07-24.76c-2.14,0.43-20.13,2.82-32.95,12.45
		l-20.84-4.6l-19.95-4.38C224.62,152.94,265.49,256.53,267.5,259.89z"/>
</g>
<g id="Bold">
	<polygon class="st1" points="41.97,310.72 150.86,76.48 255.6,103.16 254.89,150 209.02,141.25 273.53,298.76 221.66,305.76 
		162.64,156.42 96.37,310.91 92.29,301.36 77.05,299.15 87.83,266.23 70.47,293.93 	"/>
	<path class="st1" d="M290.82,300.13c0,0-26.72-12.14-9.58-40.24c0,0,61.04-79.39,42.17-108.61c0,0-8.94-17.79-37.72-9.52
		c-5.61,1.61-22.15,16.45-20.68-10.83c0.84-15.58-5.36-50.36,44.7-61.04c13.67-2.92,64.57,6.64,53.18,65.72
		c-1.51,7.85-8.78,25.73-0.37,31.96c8.15,6.03,16.8,6.44,24.99-58.36c5.71-45.2,47.04-60.3,64.49-32.74c0,0,23.18,31.17-18.43,65.9
		c-19.11,15.95-41.67,60.8-27.76,84.56c3.42,5.85,12.23,12.7,26.32,8.65c15.2-4.36,46.78-5.82,26.01,36.71
		c-2.48,5.08-38.57,53.85-83.29,33.82c-1.2-0.54-9.43-4.04-13.11-12.27c-3.68-8.24-3.4-20.3-0.17-33.96c0,0,9.17-32.55-4.6-32.55
		c-15.31,0-20.81,54.61-37.88,69.01C319.09,296.35,308.03,305.46,290.82,300.13z"/>
</g>
</svg>
